<svg xmlns="http://www.w3.org/2000/svg" width="64" height="64" viewBox="0 0 64 64">
  <defs>
    <!-- Classic Apple-style hard stripes -->
    <linearGradient id="archRainbow" x1="0" y1="0" x2="0" y2="64" gradientUnits="userSpaceOnUse">
      <stop offset="0%"        stop-color="#79C753"/>
      <stop offset="16.666%"   stop-color="#79C753"/>

      <stop offset="16.667%"   stop-color="#FFD24A"/>
      <stop offset="33.333%"   stop-color="#FFD24A"/>

      <stop offset="33.334%"   stop-color="#FF8C2A"/>
      <stop offset="50.000%"   stop-color="#FF8C2A"/>

      <stop offset="50.001%"   stop-color="#E74C3C"/>
      <stop offset="66.666%"   stop-color="#E74C3C"/>

      <stop offset="66.667%"   stop-color="#9B59B6"/>
      <stop offset="83.333%"   stop-color="#9B59B6"/>

      <stop offset="83.334%"   stop-color="#2D9CDB"/>
      <stop offset="100%"      stop-color="#2D9CDB"/>
    </linearGradient>
  </defs>

  <path
    d="M31.994-.006c-2.85 6.985-4.568 11.554-7.74 18.332 1.945 2.062 4.332 4.462 8.2 7.174-4.168-1.715-7-3.437-9.136-5.224-4.06 8.47-10.42 20.538-23.327 43.73C10.145 58.15 18 54.54 25.338 53.16c-.315-1.354-.494-2.818-.48-4.345l.012-.325c.16-6.5 3.542-11.498 7.547-11.158s7.118 5.886 6.957 12.386a18.36 18.36 0 0 1-.409 3.491c7.25 1.418 15.03 5.02 25.037 10.797l-5.42-10.026c-2.65-2.053-5.413-4.726-11.05-7.62 3.875 1.007 6.65 2.168 8.8 3.467-17.1-31.84-18.486-36.07-24.35-49.833z"
    fill="url(#archRainbow)" fill-rule="evenodd"/>
</svg>
